<svg width="49" height="47" viewBox="0 0 49 47" fill="none" xmlns="http://www.w3.org/2000/svg">
<rect x="1.79004" width="5.36535" height="33.0902" fill="#292929"/>
<rect x="41.7305" width="5.36535" height="33.0902" fill="#292929"/>
<rect x="10.1357" width="1.78845" height="26.5324" fill="#292929"/>
<rect x="14.9043" width="1.78845" height="26.5324" fill="#292929"/>
<rect x="19.6729" width="3.5769" height="26.5324" fill="#292929"/>
<rect x="26.2324" width="1.78845" height="26.5324" fill="#292929"/>
<rect x="30.998" width="2.68268" height="26.5324" fill="#292929"/>
<rect x="36.6631" width="2.08653" height="26.5324" fill="#292929"/>
<rect x="0.0858344" y="15.5917" width="48.4146" height="3.40555" fill="#969696" stroke="#CECECF" stroke-width="0.171669"/>
<path d="M34.96 20.8555H13.9137C13.8066 20.8555 13.7256 20.9525 13.7448 21.0578L14.0061 22.4951L14.0594 23.268C14.218 25.5678 15.1435 27.748 16.6879 29.4596L19.8186 32.9292V43.0744C19.8186 43.748 20.2125 44.3594 20.826 44.6377L23.171 45.7017C24.0672 46.1083 25.0989 46.0885 25.9789 45.648L27.9617 44.6553C28.5428 44.3644 28.9099 43.7702 28.9099 43.1203V33.1356C28.9099 32.908 29.0003 32.6897 29.1612 32.5288L31.8199 29.8697C33.5942 28.0951 34.6596 25.7339 34.8162 23.2293L34.8714 22.3461L35.1284 21.0608C35.1496 20.9546 35.0684 20.8555 34.96 20.8555Z" fill="#292929" stroke="#292929" stroke-width="0.515007" stroke-linecap="round"/>
<mask id="path-11-inside-1_76_1899" fill="white">
<path d="M18.7794 23.5388C18.7794 23.8911 18.9297 24.24 19.2218 24.5655C19.5139 24.891 19.9421 25.1867 20.4818 25.4359C21.0215 25.685 21.6623 25.8826 22.3675 26.0175C23.0727 26.1523 23.8285 26.2217 24.5918 26.2217C25.3551 26.2217 26.111 26.1523 26.8162 26.0175C27.5214 25.8826 28.1621 25.685 28.7019 25.4359C29.2416 25.1867 29.6697 24.891 29.9618 24.5655C30.254 24.24 30.4043 23.8911 30.4043 23.5388L24.5918 23.5388H18.7794Z"/>
</mask>
<path d="M18.7794 23.5388C18.7794 23.8911 18.9297 24.24 19.2218 24.5655C19.5139 24.891 19.9421 25.1867 20.4818 25.4359C21.0215 25.685 21.6623 25.8826 22.3675 26.0175C23.0727 26.1523 23.8285 26.2217 24.5918 26.2217C25.3551 26.2217 26.111 26.1523 26.8162 26.0175C27.5214 25.8826 28.1621 25.685 28.7019 25.4359C29.2416 25.1867 29.6697 24.891 29.9618 24.5655C30.254 24.24 30.4043 23.8911 30.4043 23.5388L24.5918 23.5388H18.7794Z" fill="#D8D8D8" stroke="#292929" stroke-width="0.343338" mask="url(#path-11-inside-1_76_1899)"/>
</svg>
